<svg width="99" height="56" viewBox="0 0 99 56" fill="none" xmlns="http://www.w3.org/2000/svg">
<path d="M42.5096 17.6213C41.4706 16.5765 40.212 15.7231 38.7347 15.0614C37.257 14.3998 35.6869 13.9762 34.0245 13.79C32.8695 13.6505 31.7733 13.5811 30.7343 13.5811C29.0719 13.5811 27.5359 13.7325 26.1282 14.0337C24.7195 14.3355 23.4496 14.7301 22.3188 15.218C21.2798 15.6826 20.362 16.1991 19.5653 16.7679C18.7687 17.3372 18.0876 17.9345 17.5219 18.5614C16.9558 19.1883 16.5118 19.8214 16.1885 20.4597C15.8647 21.0985 15.6688 21.6959 15.5997 22.2533C15.5765 22.3699 15.5651 22.4685 15.5651 22.5493V22.8454C15.5651 23.8208 15.8647 24.6338 16.4654 25.2835C17.0656 25.9337 17.92 26.3283 19.0281 26.4678C19.1436 26.4911 19.2647 26.5025 19.3916 26.5025H19.7551C20.7941 26.5025 21.8444 26.2759 22.9066 25.8233C23.9683 25.3706 25.0191 24.8365 26.0581 24.2211C27.0971 23.6061 28.1185 22.9792 29.123 22.3404C30.1274 21.7021 31.1025 21.1971 32.0497 20.8253C32.1414 20.7791 32.2456 20.7558 32.3616 20.7558C32.4307 20.7558 32.4653 20.7791 32.4653 20.8253C32.4653 20.8948 32.4075 20.9881 32.292 21.1037C31.5995 21.6845 30.872 22.4042 30.1099 23.2628C29.3478 24.122 28.5975 25.0216 27.8587 25.9617C27.1193 26.9018 26.4154 27.8424 25.7461 28.783C25.0763 29.7231 24.4762 30.5765 23.9451 31.3429C23.876 31.4362 23.7893 31.5462 23.6852 31.6737C23.581 31.8018 23.4367 31.8651 23.2521 31.8651C23.1361 31.8651 22.9633 31.7956 22.7328 31.6561C21.9243 31.2154 21.1225 30.7508 20.3259 30.2628C19.5293 29.7754 18.7208 29.3399 17.9014 28.9567C17.0816 28.5735 16.2504 28.2546 15.4079 27.999C14.5648 27.7439 13.6934 27.6158 12.7931 27.6158C12.2615 27.6158 11.783 27.6568 11.3561 27.7376C10.9286 27.8191 10.5074 27.9528 10.0918 28.1379C9.49106 28.3936 9.05278 28.7073 8.77589 29.0785C8.499 29.4503 8.3603 29.8221 8.3603 30.1928C8.3603 30.4946 8.44692 30.7445 8.62017 30.9416C8.79342 31.1391 9.01824 31.2496 9.29564 31.2724C9.52613 31.2724 9.76847 31.2148 10.0232 31.0982C10.2769 30.982 10.5543 30.785 10.8544 30.506C12.0089 29.4151 13.2319 28.8691 14.5256 28.8691C15.2408 28.8691 15.9395 28.9624 16.6211 29.1485C17.3018 29.3347 17.9659 29.5851 18.6125 29.8993C19.2585 30.2141 19.8995 30.5625 20.5347 30.9468C21.1695 31.331 21.8217 31.709 22.4915 32.0813C22.5833 32.1279 22.6823 32.1979 22.7859 32.2908C22.8896 32.3846 22.9417 32.4888 22.9417 32.6055C22.9417 32.7222 22.8726 32.885 22.7339 33.0939C21.8795 34.2813 20.973 35.3816 20.015 36.3943C19.0564 37.407 18.0463 38.3092 16.9846 39.1005C16.5458 39.4271 16.0436 39.7408 15.478 40.0436C14.9118 40.3465 14.3348 40.6197 13.7465 40.8645C13.1577 41.1092 12.5745 41.3016 11.9975 41.441C11.42 41.581 10.8894 41.6505 10.4042 41.6505C9.84994 41.6039 9.34772 41.5334 8.89758 41.44C8.44744 41.3462 8.04886 41.2005 7.70288 41.0013C7.35638 40.8022 7.0501 40.5274 6.78506 40.1759C6.52003 39.8248 6.29471 39.3805 6.1096 38.8417C5.925 38.3035 5.70019 37.9172 5.43413 37.6833C5.1691 37.4495 4.90922 37.3323 4.65502 37.3323C4.26263 37.3323 3.92231 37.5185 3.63356 37.8897C3.34533 38.2615 3.20044 38.7028 3.20044 39.213C3.20044 39.5148 3.26438 39.8171 3.39071 40.1183C3.51806 40.4201 3.73153 40.6991 4.03163 40.9542C4.65502 41.5116 5.39958 41.8948 6.26531 42.1032C7.13105 42.3122 8.06021 42.4169 9.0533 42.4169C10.577 42.4169 12.0315 42.1613 13.417 41.6505C14.8025 41.1403 16.072 40.5015 17.2265 39.7351C18.3113 39.0159 19.3679 38.1215 20.3955 37.0533C21.4226 35.9857 22.3982 34.8476 23.3222 33.6405C23.6455 33.3154 23.9224 33.1531 24.1534 33.1531C24.2689 33.1531 24.4999 33.2111 24.8459 33.3273C25.6997 33.7224 26.6062 34.0413 27.5648 34.285C28.5228 34.5287 29.5674 34.6505 30.6992 34.6505C32.4771 34.6505 34.2663 34.3431 36.0674 33.7276C37.8685 33.1126 39.4726 32.2825 40.8813 31.2376C41.4583 30.8197 42.0069 30.3442 42.5261 29.8096C43.0459 29.2756 43.5074 28.7011 43.9116 28.0856C44.3153 27.4706 44.6392 26.8142 44.8815 26.1178C45.1238 25.4214 45.245 24.6784 45.245 23.8887C45.245 22.6349 45.0027 21.4853 44.5175 20.4405C44.0328 19.3957 43.3625 18.4551 42.5086 17.6193L42.5096 17.6213ZM41.7821 26.7462C40.9736 28.0928 39.9578 29.2771 38.7342 30.2986C37.3487 31.4368 35.8426 32.3307 34.2148 32.9804C32.5869 33.6306 31.0457 33.9557 29.5912 33.9557C28.7368 33.9557 27.9288 33.8458 27.1667 33.6249C26.4046 33.4045 25.6544 33.1318 24.9155 32.8062C24.6154 32.6667 24.4653 32.5049 24.4653 32.3188C24.4653 32.2493 24.488 32.1793 24.5344 32.1098C24.5803 32.0403 24.6386 31.9475 24.7077 31.8314C25.8854 30.2991 26.9873 29.1091 28.0149 28.2613C29.042 27.4141 29.9892 26.7411 30.855 26.2412C31.7207 25.7424 32.5173 25.3302 33.2449 25.0051C33.9719 24.6799 34.6355 24.262 35.2362 23.7513C35.6977 23.3567 36.0442 22.9621 36.2752 22.567C36.5057 22.1724 36.633 21.8006 36.6563 21.4527V21.3132C36.6563 20.7096 36.4253 20.2803 35.9638 20.0247C35.5018 19.7696 34.9939 19.6415 34.4401 19.6415C33.447 19.6648 32.408 19.9495 31.3231 20.495C30.2378 21.041 29.124 21.6388 27.9809 22.2885C26.8382 22.9388 25.6951 23.5309 24.552 24.065C23.4093 24.5996 22.2951 24.8661 21.2097 24.8661H20.8977C20.8054 24.8661 20.7013 24.8547 20.5863 24.8314C19.8242 24.7152 19.258 24.4544 18.8894 24.0479C18.5197 23.6419 18.3351 23.1482 18.3351 22.5675C18.3351 22.498 18.3402 22.4342 18.3526 22.3762C18.3639 22.3186 18.3701 22.2543 18.3701 22.1848C18.4856 21.2795 18.9528 20.2865 19.7726 19.207C20.592 18.1274 21.7294 17.1583 23.184 16.2991C24.2921 15.6722 25.5332 15.162 26.9068 14.7669C28.2804 14.3723 29.7984 14.1748 31.4608 14.1748C31.8532 14.1748 32.2456 14.1867 32.6385 14.2095C33.0309 14.2328 33.4233 14.2676 33.8162 14.3137C35.2244 14.4999 36.598 14.9059 37.9376 15.5328C39.2761 16.1596 40.3847 16.9841 41.2623 18.0056C41.7934 18.6325 42.2147 19.3117 42.5261 20.0428C42.8381 20.7745 42.9938 21.5699 42.9938 22.4285C42.9938 23.9608 42.5896 25.4007 41.7816 26.7473L41.7821 26.7462Z" fill="white"/>
<path d="M91.5347 36.6494C87.7108 36.6494 85.5117 33.3392 85.4777 29.9299H95.7989C95.4942 26.0903 92.2458 24.4015 89.3021 24.4015C85.8845 24.4015 82.2849 26.4169 81.9529 31.1028C81.8848 31.1536 81.8162 31.2029 81.7461 31.2511C81.2274 31.6084 80.6953 31.7862 80.1492 31.7862C79.7939 31.7862 79.4799 31.7178 79.2077 31.5804C78.9622 31.4435 78.839 31.2921 78.839 31.1277C78.839 30.9908 78.8797 30.8394 78.9617 30.675C79.3438 29.9615 79.6372 29.2688 79.8419 28.5958C80.0466 27.9232 80.1487 27.2989 80.1487 26.7224C80.1487 25.9544 80.0115 25.3841 79.7393 25.0138C79.466 24.6431 79.152 24.458 78.7978 24.458C78.3332 24.458 77.897 24.753 77.4876 25.3431C77.0781 25.9337 76.8734 26.8048 76.8734 27.9575C76.8734 28.4516 76.9276 28.939 77.0374 29.4192C77.1462 29.8998 77.3102 30.3458 77.5288 30.7575C77.6928 31.0048 77.7748 31.2101 77.7748 31.375C77.7748 31.5674 77.6928 31.8007 77.5288 32.075C76.9822 32.8984 76.3826 33.6809 75.7272 34.4218C75.0724 35.1628 74.4031 35.8218 73.7209 36.3979C73.0382 36.9745 72.3628 37.4344 71.694 37.7772C71.0247 38.1209 70.4312 38.2921 69.913 38.2921C69.6124 38.2921 69.3195 38.1894 69.0328 37.9835C68.7462 37.7777 68.6028 37.4007 68.6028 36.8511C68.6028 35.6984 68.9235 34.6069 69.565 33.5777C70.2059 32.5484 70.9092 31.5876 71.6734 30.6958C72.437 29.8039 73.1403 28.9665 73.7818 28.1841C74.4227 27.4016 74.7439 26.6679 74.7439 25.9814C74.7439 25.5427 74.614 25.1927 74.3551 24.9314C74.0953 24.6706 73.7338 24.5404 73.2703 24.5404C72.6695 24.5404 72.0281 24.8977 71.3459 25.6106C70.9907 25.9954 70.5405 26.5372 69.995 27.2367C69.4484 27.9367 68.855 28.6917 68.214 29.5011C67.5726 30.311 66.9172 31.1344 66.249 31.9713C65.5797 32.8087 64.9316 33.5704 64.3041 34.2564C63.676 34.9429 63.1026 35.4988 62.5844 35.924C62.0657 36.3497 61.6563 36.5623 61.3562 36.5623C61.1108 36.5623 60.9876 36.4119 60.9876 36.1096C60.9876 35.8073 61.1515 35.4096 61.4789 34.9155C61.8064 34.4213 62.2158 33.8862 62.7072 33.3096C63.1986 32.733 63.7374 32.1155 64.3242 31.4569C64.9109 30.7979 65.4503 30.1394 65.9412 29.4809C66.4326 28.8218 66.8481 28.1908 67.19 27.5867C67.5308 26.9832 67.702 26.4341 67.702 25.9399C67.702 25.5837 67.62 25.2746 67.4566 25.0133C67.2926 24.753 67.0198 24.6224 66.6378 24.6224C66.2284 24.6224 65.7096 24.8422 65.0821 25.2814C64.4541 25.7206 63.8127 26.2427 63.1578 26.8458C62.6685 27.2964 62.0812 27.8501 61.3361 28.6575C60.8226 29.2138 60.2136 29.9138 59.5644 30.7564C59.5634 30.7585 59.5624 30.7611 59.5613 30.7637C59.5072 29.8381 59.4494 28.8327 59.3891 27.7573C59.1246 23.0305 55.7101 21.6528 51.5624 22.5032C47.4132 23.3229 45.955 25.7149 46.8424 26.8038C47.6978 27.8641 49.0653 26.0312 51.2221 25.7247C52.9232 25.4743 53.4455 26.0607 53.5497 26.8245C53.875 28.8078 49.6979 30.7684 48.347 31.7992C46.6454 33.1271 45.0913 34.9087 45.6647 37.4935C46.1071 39.3778 47.8577 40.0177 49.75 39.9109C53.445 39.7325 55.8921 36.946 57.0239 35.8353C57.0966 37.1352 57.0384 38.6011 57.851 39.1906C57.9371 39.2534 58.2903 39.4587 58.941 39.4525C60.3399 39.4401 61.4965 38.4435 62.2044 37.6434C62.603 37.2799 63.016 36.8729 63.445 36.4186C64.2087 35.6092 64.994 34.7034 65.7994 33.7011C66.6043 32.6993 67.3818 31.7115 68.1331 30.7367C68.8833 29.7629 69.5866 28.8571 70.2415 28.0192C70.8968 27.1823 71.4424 26.5165 71.8791 26.0224C72.1519 25.7206 72.4246 25.494 72.6979 25.3431C72.9707 25.1927 73.2161 25.1165 73.4347 25.1165C73.8441 25.1165 74.0488 25.3224 74.0488 25.7341C74.0488 26.2557 73.8503 26.7773 73.4554 27.2984C73.0594 27.8201 72.568 28.3484 71.9812 28.8835C71.3939 29.4186 70.7592 29.9683 70.0775 30.5304C69.3948 31.0935 68.7601 31.6695 68.1738 32.2596C67.5865 32.8502 67.0951 33.4605 66.6996 34.0915C66.3036 34.7231 66.1062 35.3676 66.1062 36.0266C66.1062 37.0149 66.3722 37.7906 66.9044 38.3527C67.4365 38.9158 68.2759 39.1969 69.4221 39.1969C70.1043 39.1969 70.8277 39.0118 71.5919 38.641C72.3555 38.2703 73.113 37.7699 73.8643 37.1384C74.6145 36.5073 75.3446 35.7866 76.0546 34.9766C76.7641 34.1672 77.4056 33.3231 77.9789 32.4447C78.1697 32.1155 78.3332 31.9506 78.4703 31.9506C78.5245 31.9506 78.593 31.9646 78.675 31.9915C78.757 32.019 78.8658 32.0605 79.0025 32.1149C79.3567 32.3073 79.7527 32.4032 80.1899 32.4032C80.7747 32.3768 81.3527 32.1855 81.925 31.8334C81.9343 36.5555 85.5499 39.2306 89.0984 39.2306C91.7719 39.2306 94.3774 37.7082 95.3926 34.4638C94.513 35.9204 93.0574 36.6494 91.5347 36.6494ZM89.1659 24.7328C90.8917 24.7328 92.3468 25.9907 92.3468 27.6785C92.3468 28.2416 92.2453 28.9696 91.873 29.5986H85.4772C85.5787 26.1229 87.4061 24.7328 89.1659 24.7328ZM53.6703 37.7492C52.0956 38.6078 49.5448 38.4445 48.777 36.7635C48.0077 35.0518 49.0374 33.2075 51.3459 31.2293C53.6543 29.2512 54.1571 27.8372 53.939 26.6793C53.6698 25.1549 51.8161 24.8593 49.8444 25.1865C49.4494 25.2394 49.0168 25.1715 49.2117 24.822C49.7098 23.87 51.0097 23.0269 52.5952 22.9061C54.4556 22.7702 56.3572 23.9249 56.579 27.8844L56.9961 35.3432C56.2742 36.1231 54.7722 37.1938 53.6703 37.7492ZM60.5374 30.4692C60.8483 30.0663 61.1593 29.7453 61.7656 29.0899C62.3112 28.4998 62.8918 27.9238 63.5059 27.3606C64.12 26.7986 64.7135 26.3044 65.2868 25.8782C65.8602 25.453 66.3103 25.2399 66.6378 25.2399C66.8559 25.2399 66.9652 25.3364 66.9652 25.5282C66.9652 25.9954 66.7399 26.503 66.2897 27.0516C65.8396 27.6012 65.2724 28.1841 64.5907 28.8016C63.9081 29.4192 63.1784 30.0647 62.4004 30.7367C61.6223 31.4098 60.8916 32.1025 60.21 32.816C60.0378 32.9959 59.8733 33.1764 59.716 33.3573C59.6861 32.8632 59.6541 32.3291 59.6201 31.7572C59.8166 31.4948 60.1146 31.0162 60.5374 30.4692ZM78.2656 30.5516C78.129 30.5516 77.9789 30.3598 77.8155 29.975C77.6783 29.6732 77.5835 29.3512 77.5288 29.0075C77.4736 28.6647 77.4468 28.3282 77.4468 27.9989C77.4468 27.1206 77.5963 26.4211 77.897 25.8989C78.197 25.3778 78.4971 25.1165 78.7978 25.1165C78.9885 25.1165 79.1592 25.2472 79.3093 25.5075C79.4588 25.7688 79.5346 26.1732 79.5346 26.7218C79.5346 27.216 79.4593 27.7449 79.3093 28.3069C79.1592 28.8701 78.9473 29.4394 78.6745 30.0155C78.4832 30.3727 78.3471 30.5506 78.2651 30.5506L78.2656 30.5516Z" fill="white"/>
</svg>
