<svg width="120" height="120" viewBox="0 0 120 120" fill="none" xmlns="http://www.w3.org/2000/svg">
<circle cx="60" cy="60" r="60" fill="black"/>
<path d="M52.5098 49.6213C51.4708 48.5765 50.2122 47.7231 48.7349 47.0614C47.2572 46.3998 45.6871 45.9762 44.0247 45.79C42.8697 45.6505 41.7735 45.5811 40.7345 45.5811C39.0721 45.5811 37.5361 45.7325 36.1284 46.0337C34.7197 46.3355 33.4498 46.7301 32.319 47.218C31.28 47.6826 30.3622 48.1991 29.5655 48.7679C28.7689 49.3372 28.0878 49.9345 27.5221 50.5614C26.956 51.1883 26.512 51.8214 26.1887 52.4597C25.8649 53.0985 25.669 53.6959 25.5999 54.2533C25.5767 54.3699 25.5653 54.4685 25.5653 54.5493V54.8454C25.5653 55.8208 25.8649 56.6338 26.4656 57.2835C27.0658 57.9337 27.9202 58.3283 29.0283 58.4678C29.1438 58.4911 29.2649 58.5025 29.3918 58.5025H29.7553C30.7943 58.5025 31.8446 58.2759 32.9068 57.8233C33.9685 57.3706 35.0193 56.8365 36.0583 56.2211C37.0973 55.6061 38.1187 54.9792 39.1232 54.3404C40.1276 53.7021 41.1027 53.1971 42.0499 52.8253C42.1416 52.7791 42.2458 52.7558 42.3618 52.7558C42.4309 52.7558 42.4655 52.7791 42.4655 52.8253C42.4655 52.8948 42.4077 52.9881 42.2922 53.1037C41.5997 53.6845 40.8722 54.4042 40.1101 55.2628C39.348 56.122 38.5977 57.0216 37.8589 57.9617C37.1195 58.9018 36.4156 59.8424 35.7463 60.783C35.0765 61.7231 34.4764 62.5765 33.9453 63.3429C33.8762 63.4362 33.7895 63.5462 33.6854 63.6737C33.5812 63.8018 33.4369 63.8651 33.2523 63.8651C33.1363 63.8651 32.9635 63.7956 32.733 63.6561C31.9245 63.2154 31.1227 62.7508 30.3261 62.2628C29.5295 61.7754 28.721 61.3399 27.9016 60.9567C27.0818 60.5735 26.2506 60.2546 25.4081 59.999C24.565 59.7439 23.6936 59.6158 22.7933 59.6158C22.2617 59.6158 21.7832 59.6568 21.3563 59.7376C20.9288 59.8191 20.5076 59.9528 20.092 60.1379C19.4913 60.3936 19.053 60.7073 18.7761 61.0785C18.4992 61.4503 18.3605 61.8221 18.3605 62.1928C18.3605 62.4946 18.4472 62.7445 18.6204 62.9416C18.7937 63.1391 19.0185 63.2496 19.2959 63.2724C19.5264 63.2724 19.7687 63.2148 20.0234 63.0982C20.2771 62.982 20.5545 62.785 20.8546 62.506C22.0091 61.4151 23.2321 60.8691 24.5258 60.8691C25.241 60.8691 25.9397 60.9624 26.6213 61.1485C27.302 61.3347 27.9661 61.5851 28.6127 61.8993C29.2587 62.2141 29.8997 62.5625 30.5349 62.9468C31.1697 63.331 31.8219 63.709 32.4917 64.0813C32.5835 64.1279 32.6825 64.1979 32.7861 64.2908C32.8898 64.3846 32.9419 64.4888 32.9419 64.6055C32.9419 64.7222 32.8728 64.885 32.7341 65.0939C31.8797 66.2813 30.9732 67.3816 30.0152 68.3943C29.0566 69.407 28.0465 70.3092 26.9848 71.1005C26.546 71.4271 26.0438 71.7408 25.4782 72.0436C24.912 72.3465 24.335 72.6197 23.7467 72.8645C23.1579 73.1092 22.5747 73.3016 21.9977 73.441C21.4202 73.581 20.8896 73.6505 20.4044 73.6505C19.8502 73.6039 19.348 73.5334 18.8978 73.44C18.4477 73.3462 18.0491 73.2005 17.7031 73.0013C17.3566 72.8022 17.0503 72.5274 16.7853 72.1759C16.5203 71.8248 16.295 71.3805 16.1098 70.8417C15.9252 70.3035 15.7004 69.9172 15.4344 69.6833C15.1693 69.4495 14.9095 69.3323 14.6553 69.3323C14.2629 69.3323 13.9226 69.5185 13.6338 69.8897C13.3456 70.2615 13.2007 70.7028 13.2007 71.213C13.2007 71.5148 13.2646 71.8171 13.391 72.1183C13.5183 72.4201 13.7318 72.6991 14.0319 72.9542C14.6553 73.5116 15.3998 73.8948 16.2656 74.1032C17.1313 74.3122 18.0605 74.4169 19.0535 74.4169C20.5772 74.4169 22.0317 74.1613 23.4172 73.6505C24.8027 73.1403 26.0722 72.5015 27.2267 71.7351C28.3115 71.0159 29.3681 70.1215 30.3957 69.0533C31.4228 67.9857 32.3984 66.8476 33.3224 65.6405C33.6457 65.3154 33.9226 65.1531 34.1536 65.1531C34.2691 65.1531 34.5001 65.2111 34.8461 65.3273C35.6999 65.7224 36.6064 66.0413 37.565 66.285C38.523 66.5287 39.5676 66.6505 40.6994 66.6505C42.4773 66.6505 44.2665 66.3431 46.0676 65.7276C47.8687 65.1126 49.4728 64.2825 50.8815 63.2376C51.4585 62.8197 52.0071 62.3442 52.5263 61.8096C53.0461 61.2756 53.5076 60.7011 53.9118 60.0856C54.3155 59.4706 54.6394 58.8142 54.8817 58.1178C55.124 57.4214 55.2452 56.6784 55.2452 55.8887C55.2452 54.6349 55.0029 53.4853 54.5177 52.4405C54.033 51.3957 53.3627 50.4551 52.5088 49.6193L52.5098 49.6213ZM51.7823 58.7462C50.9738 60.0928 49.958 61.2771 48.7344 62.2986C47.3489 63.4368 45.8428 64.3307 44.215 64.9804C42.5871 65.6306 41.0459 65.9557 39.5914 65.9557C38.737 65.9557 37.929 65.8458 37.1669 65.6249C36.4048 65.4045 35.6546 65.1318 34.9157 64.8062C34.6156 64.6667 34.4655 64.5049 34.4655 64.3188C34.4655 64.2493 34.4882 64.1793 34.5346 64.1098C34.5805 64.0403 34.6388 63.9475 34.7079 63.8314C35.8856 62.2991 36.9875 61.1091 38.0151 60.2613C39.0422 59.4141 39.9894 58.7411 40.8552 58.2412C41.7209 57.7424 42.5175 57.3302 43.2451 57.0051C43.9721 56.6799 44.6357 56.262 45.2364 55.7513C45.6979 55.3567 46.0444 54.9621 46.2754 54.567C46.5059 54.1724 46.6332 53.8006 46.6565 53.4527V53.3132C46.6565 52.7096 46.4255 52.2803 45.964 52.0247C45.502 51.7696 44.9941 51.6415 44.4403 51.6415C43.4472 51.6648 42.4082 51.9495 41.3233 52.495C40.238 53.041 39.1242 53.6388 37.9811 54.2885C36.8384 54.9388 35.6953 55.5309 34.5522 56.065C33.4095 56.5996 32.2953 56.8661 31.2099 56.8661H30.8979C30.8056 56.8661 30.7015 56.8547 30.5865 56.8314C29.8244 56.7152 29.2582 56.4544 28.8896 56.0479C28.5199 55.6419 28.3353 55.1482 28.3353 54.5675C28.3353 54.498 28.3404 54.4342 28.3528 54.3762C28.3641 54.3186 28.3703 54.2543 28.3703 54.1848C28.4858 53.2795 28.953 52.2865 29.7728 51.207C30.5922 50.1274 31.7296 49.1583 33.1842 48.2991C34.2923 47.6722 35.5334 47.162 36.907 46.7669C38.2806 46.3723 39.7986 46.1748 41.461 46.1748C41.8534 46.1748 42.2458 46.1867 42.6387 46.2095C43.0311 46.2328 43.4235 46.2676 43.8164 46.3137C45.2246 46.4999 46.5982 46.9059 47.9378 47.5328C49.2763 48.1596 50.3849 48.9841 51.2625 50.0056C51.7936 50.6325 52.2149 51.3117 52.5263 52.0428C52.8383 52.7745 52.994 53.5699 52.994 54.4285C52.994 55.9608 52.5898 57.4007 51.7818 58.7473L51.7823 58.7462Z" fill="white"/>
<path d="M101.535 68.6494C97.7108 68.6494 95.5117 65.3392 95.4777 61.9299H105.799C105.494 58.0903 102.246 56.4015 99.3021 56.4015C95.8845 56.4015 92.2849 58.4169 91.9529 63.1028C91.8848 63.1536 91.8162 63.2029 91.7461 63.2511C91.2274 63.6084 90.6953 63.7862 90.1492 63.7862C89.7939 63.7862 89.4799 63.7178 89.2077 63.5804C88.9622 63.4435 88.839 63.2921 88.839 63.1277C88.839 62.9908 88.8797 62.8394 88.9617 62.675C89.3438 61.9615 89.6372 61.2688 89.8419 60.5958C90.0466 59.9232 90.1487 59.2989 90.1487 58.7224C90.1487 57.9544 90.0115 57.3841 89.7393 57.0138C89.466 56.6431 89.152 56.458 88.7978 56.458C88.3332 56.458 87.897 56.753 87.4876 57.3431C87.0781 57.9337 86.8734 58.8048 86.8734 59.9575C86.8734 60.4516 86.9276 60.939 87.0374 61.4192C87.1462 61.8998 87.3102 62.3458 87.5288 62.7575C87.6928 63.0048 87.7748 63.2101 87.7748 63.375C87.7748 63.5674 87.6928 63.8007 87.5288 64.075C86.9822 64.8984 86.3826 65.6809 85.7272 66.4218C85.0724 67.1628 84.4031 67.8218 83.7209 68.3979C83.0382 68.9745 82.3628 69.4344 81.694 69.7772C81.0247 70.1209 80.4312 70.2921 79.913 70.2921C79.6124 70.2921 79.3195 70.1894 79.0328 69.9835C78.7462 69.7777 78.6028 69.4007 78.6028 68.8511C78.6028 67.6984 78.9235 66.6069 79.565 65.5777C80.2059 64.5484 80.9092 63.5876 81.6734 62.6958C82.437 61.8039 83.1403 60.9665 83.7818 60.1841C84.4227 59.4016 84.7439 58.6679 84.7439 57.9814C84.7439 57.5427 84.614 57.1927 84.3551 56.9314C84.0953 56.6706 83.7338 56.5404 83.2703 56.5404C82.6695 56.5404 82.0281 56.8977 81.3459 57.6106C80.9907 57.9954 80.5405 58.5372 79.995 59.2367C79.4484 59.9367 78.855 60.6917 78.214 61.5011C77.5726 62.311 76.9172 63.1344 76.249 63.9713C75.5797 64.8087 74.9316 65.5704 74.3041 66.2564C73.676 66.9429 73.1026 67.4988 72.5844 67.924C72.0657 68.3497 71.6563 68.5623 71.3562 68.5623C71.1108 68.5623 70.9876 68.4119 70.9876 68.1096C70.9876 67.8073 71.1515 67.4096 71.4789 66.9155C71.8064 66.4213 72.2158 65.8862 72.7072 65.3096C73.1986 64.733 73.7374 64.1155 74.3242 63.4569C74.9109 62.7979 75.4503 62.1394 75.9412 61.4809C76.4326 60.8218 76.8481 60.1908 77.19 59.5867C77.5308 58.9832 77.702 58.4341 77.702 57.9399C77.702 57.5837 77.62 57.2746 77.4566 57.0133C77.2926 56.753 77.0198 56.6224 76.6378 56.6224C76.2284 56.6224 75.7096 56.8422 75.0821 57.2814C74.4541 57.7206 73.8127 58.2427 73.1578 58.8458C72.6685 59.2964 72.0812 59.8501 71.3361 60.6575C70.8226 61.2138 70.2136 61.9138 69.5644 62.7564C69.5634 62.7585 69.5624 62.7611 69.5613 62.7637C69.5072 61.8381 69.4494 60.8327 69.3891 59.7573C69.1246 55.0305 65.7101 53.6528 61.5624 54.5032C57.4132 55.3229 55.955 57.7149 56.8424 58.8038C57.6978 59.8641 59.0653 58.0312 61.2221 57.7247C62.9232 57.4743 63.4455 58.0607 63.5497 58.8245C63.875 60.8078 59.6979 62.7684 58.347 63.7992C56.6454 65.1271 55.0913 66.9087 55.6647 69.4935C56.1071 71.3778 57.8577 72.0177 59.75 71.9109C63.445 71.7325 65.8921 68.946 67.0239 67.8353C67.0966 69.1352 67.0384 70.6011 67.851 71.1906C67.9371 71.2534 68.2903 71.4587 68.941 71.4525C70.3399 71.4401 71.4965 70.4435 72.2044 69.6434C72.603 69.2799 73.016 68.8729 73.445 68.4186C74.2087 67.6092 74.994 66.7034 75.7994 65.7011C76.6043 64.6993 77.3818 63.7115 78.1331 62.7367C78.8833 61.7629 79.5866 60.8571 80.2415 60.0192C80.8968 59.1823 81.4424 58.5165 81.8791 58.0224C82.1519 57.7206 82.4246 57.494 82.6979 57.3431C82.9707 57.1927 83.2161 57.1165 83.4347 57.1165C83.8441 57.1165 84.0488 57.3224 84.0488 57.7341C84.0488 58.2557 83.8503 58.7773 83.4554 59.2984C83.0594 59.8201 82.568 60.3484 81.9812 60.8835C81.3939 61.4186 80.7592 61.9683 80.0775 62.5304C79.3948 63.0935 78.7601 63.6695 78.1738 64.2596C77.5865 64.8502 77.0951 65.4605 76.6996 66.0915C76.3036 66.7231 76.1062 67.3676 76.1062 68.0266C76.1062 69.0149 76.3722 69.7906 76.9044 70.3527C77.4365 70.9158 78.2759 71.1969 79.4221 71.1969C80.1043 71.1969 80.8277 71.0118 81.5919 70.641C82.3555 70.2703 83.113 69.7699 83.8643 69.1384C84.6145 68.5073 85.3446 67.7866 86.0546 66.9766C86.7641 66.1672 87.4056 65.3231 87.9789 64.4447C88.1697 64.1155 88.3332 63.9506 88.4703 63.9506C88.5245 63.9506 88.593 63.9646 88.675 63.9915C88.757 64.019 88.8658 64.0605 89.0025 64.1149C89.3567 64.3073 89.7527 64.4032 90.1899 64.4032C90.7747 64.3768 91.3527 64.1855 91.925 63.8334C91.9343 68.5555 95.5499 71.2306 99.0984 71.2306C101.772 71.2306 104.377 69.7082 105.393 66.4638C104.513 67.9204 103.057 68.6494 101.535 68.6494ZM99.1659 56.7328C100.892 56.7328 102.347 57.9907 102.347 59.6785C102.347 60.2416 102.245 60.9696 101.873 61.5986H95.4772C95.5787 58.1229 97.4061 56.7328 99.1659 56.7328ZM63.6703 69.7492C62.0956 70.6078 59.5448 70.4445 58.777 68.7635C58.0077 67.0518 59.0374 65.2075 61.3459 63.2293C63.6543 61.2512 64.1571 59.8372 63.939 58.6793C63.6698 57.1549 61.8161 56.8593 59.8444 57.1865C59.4494 57.2394 59.0168 57.1715 59.2117 56.822C59.7098 55.87 61.0097 55.0269 62.5952 54.9061C64.4556 54.7702 66.3572 55.9249 66.579 59.8844L66.9961 67.3432C66.2742 68.1231 64.7722 69.1938 63.6703 69.7492ZM70.5374 62.4692C70.8483 62.0663 71.1593 61.7453 71.7656 61.0899C72.3112 60.4998 72.8918 59.9238 73.5059 59.3606C74.12 58.7986 74.7135 58.3044 75.2868 57.8782C75.8602 57.453 76.3103 57.2399 76.6378 57.2399C76.8559 57.2399 76.9652 57.3364 76.9652 57.5282C76.9652 57.9954 76.7399 58.503 76.2897 59.0516C75.8396 59.6012 75.2724 60.1841 74.5907 60.8016C73.9081 61.4192 73.1784 62.0647 72.4004 62.7367C71.6223 63.4098 70.8916 64.1025 70.21 64.816C70.0378 64.9959 69.8733 65.1764 69.716 65.3573C69.6861 64.8632 69.6541 64.3291 69.6201 63.7572C69.8166 63.4948 70.1146 63.0162 70.5374 62.4692ZM88.2656 62.5516C88.129 62.5516 87.9789 62.3598 87.8155 61.975C87.6783 61.6732 87.5835 61.3512 87.5288 61.0075C87.4736 60.6647 87.4468 60.3282 87.4468 59.9989C87.4468 59.1206 87.5963 58.4211 87.897 57.8989C88.197 57.3778 88.4971 57.1165 88.7978 57.1165C88.9885 57.1165 89.1592 57.2472 89.3093 57.5075C89.4588 57.7688 89.5346 58.1732 89.5346 58.7218C89.5346 59.216 89.4593 59.7449 89.3093 60.3069C89.1592 60.8701 88.9473 61.4394 88.6745 62.0155C88.4832 62.3727 88.3471 62.5506 88.2651 62.5506L88.2656 62.5516Z" fill="white"/>
</svg>
