<svg width="99" height="56" viewBox="0 0 99 56" fill="none" xmlns="http://www.w3.org/2000/svg">
<path d="M42.5099 17.6213C41.4709 16.5765 40.2122 15.7231 38.735 15.0614C37.2572 14.3998 35.6871 13.9762 34.0247 13.79C32.8697 13.6505 31.7735 13.5811 30.7345 13.5811C29.0722 13.5811 27.5361 13.7325 26.1285 14.0337C24.7198 14.3355 23.4498 14.7301 22.319 15.218C21.28 15.6826 20.3622 16.1991 19.5656 16.7679C18.769 17.3372 18.0878 17.9345 17.5222 18.5614C16.956 19.1883 16.5121 19.8214 16.1888 20.4597C15.8649 21.0985 15.669 21.6959 15.5999 22.2533C15.5767 22.3699 15.5654 22.4685 15.5654 22.5494V22.8454C15.5654 23.8208 15.8649 24.6338 16.4657 25.2835C17.0658 25.9337 17.9202 26.3283 19.0283 26.4678C19.1438 26.4911 19.265 26.5025 19.3918 26.5025H19.7553C20.7943 26.5025 21.8447 26.2759 22.9068 25.8233C23.9685 25.3706 25.0194 24.8365 26.0583 24.2211C27.0973 23.6061 28.1188 22.9792 29.1232 22.3404C30.1277 21.7021 31.1027 21.1971 32.0499 20.8253C32.1417 20.7791 32.2458 20.7558 32.3619 20.7558C32.431 20.7558 32.4655 20.7791 32.4655 20.8253C32.4655 20.8948 32.4077 20.9881 32.2922 21.1037C31.5998 21.6845 30.8722 22.4042 30.1101 23.2628C29.348 24.122 28.5978 25.0216 27.8589 25.9617C27.1195 26.9018 26.4157 27.8424 25.7464 28.783C25.0766 29.7231 24.4764 30.5765 23.9453 31.3429C23.8762 31.4362 23.7896 31.5462 23.6854 31.6737C23.5813 31.8018 23.4369 31.8651 23.2523 31.8651C23.1363 31.8651 22.9636 31.7956 22.7331 31.6561C21.9246 31.2154 21.1228 30.7508 20.3261 30.2628C19.5295 29.7754 18.721 29.3399 17.9017 28.9567C17.0818 28.5735 16.2506 28.2546 15.4081 27.999C14.5651 27.7439 13.6937 27.6158 12.7934 27.6158C12.2618 27.6158 11.7833 27.6568 11.3563 27.7376C10.9289 27.8191 10.5076 27.9528 10.092 28.1379C9.49131 28.3936 9.05303 28.7073 8.77614 29.0785C8.49925 29.4503 8.36054 29.8221 8.36054 30.1928C8.36054 30.4946 8.44717 30.7445 8.62042 30.9416C8.79367 31.1391 9.01848 31.2496 9.29589 31.2724C9.52637 31.2724 9.76872 31.2148 10.0234 31.0982C10.2771 30.982 10.5545 30.785 10.8546 30.506C12.0091 29.4151 13.2322 28.8691 14.5259 28.8691C15.241 28.8691 15.9397 28.9624 16.6214 29.1485C17.302 29.3347 17.9661 29.5851 18.6127 29.8993C19.2588 30.2141 19.8997 30.5625 20.535 30.9468C21.1697 31.331 21.822 31.709 22.4918 32.0813C22.5835 32.1279 22.6825 32.1979 22.7862 32.2908C22.8898 32.3846 22.9419 32.4888 22.9419 32.6055C22.9419 32.7222 22.8728 32.885 22.7341 33.0939C21.8797 34.2813 20.9732 35.3816 20.0152 36.3943C19.0567 37.407 18.0466 38.3092 16.9849 39.1005C16.5461 39.4271 16.0439 39.7408 15.4782 40.0436C14.9121 40.3465 14.3351 40.6197 13.7468 40.8645C13.1579 41.1092 12.5747 41.3016 11.9978 41.441C11.4203 41.581 10.8897 41.6505 10.4045 41.6505C9.85018 41.6039 9.34797 41.5334 8.89782 41.44C8.44768 41.3462 8.04911 41.2005 7.70312 41.0013C7.35662 40.8022 7.05034 40.5274 6.78531 40.1759C6.52028 39.8248 6.29495 39.3805 6.10984 38.8417C5.92525 38.3035 5.70043 37.9172 5.43437 37.6833C5.16934 37.4495 4.90946 37.3323 4.65526 37.3323C4.26287 37.3323 3.92256 37.5185 3.63381 37.8897C3.34557 38.2615 3.20068 38.7028 3.20068 39.213C3.20068 39.5148 3.26462 39.8171 3.39095 40.1183C3.51831 40.4201 3.73178 40.6991 4.03187 40.9542C4.65526 41.5116 5.39982 41.8948 6.26556 42.1032C7.13129 42.3122 8.06045 42.4169 9.05354 42.4169C10.5772 42.4169 12.0318 42.1613 13.4173 41.6505C14.8028 41.1403 16.0722 40.5015 17.2267 39.7351C18.3116 39.0159 19.3681 38.1215 20.3957 37.0533C21.4229 35.9857 22.3984 34.8476 23.3224 33.6405C23.6457 33.3154 23.9226 33.1531 24.1536 33.1531C24.2691 33.1531 24.5001 33.2111 24.8461 33.3273C25.7 33.7224 26.6065 34.0413 27.565 34.285C28.523 34.5287 29.5677 34.6505 30.6995 34.6505C32.4774 34.6505 34.2666 34.3431 36.0677 33.7276C37.8687 33.1126 39.4728 32.2825 40.8815 31.2376C41.4585 30.8197 42.0071 30.3442 42.5264 29.8096C43.0461 29.2756 43.5076 28.7011 43.9119 28.0856C44.3156 27.4706 44.6394 26.8142 44.8817 26.1178C45.1241 25.4214 45.2453 24.6784 45.2453 23.8887C45.2453 22.6349 45.0029 21.4853 44.5177 20.4405C44.033 19.3957 43.3627 18.4551 42.5088 17.6193L42.5099 17.6213ZM41.7823 26.7462C40.9738 28.0928 39.958 29.2771 38.7345 30.2986C37.349 31.4368 35.8428 32.3307 34.215 32.9804C32.5872 33.6306 31.046 33.9557 29.5914 33.9557C28.737 33.9557 27.929 33.8458 27.1669 33.6249C26.4048 33.4045 25.6546 33.1318 24.9157 32.8062C24.6156 32.6667 24.4656 32.5049 24.4656 32.3188C24.4656 32.2493 24.4883 32.1793 24.5347 32.1098C24.5806 32.0403 24.6388 31.9475 24.7079 31.8314C25.8856 30.2991 26.9875 29.1091 28.0151 28.2613C29.0423 27.4141 29.9895 26.7411 30.8552 26.2412C31.7209 25.7424 32.5176 25.3302 33.2451 25.0051C33.9722 24.6799 34.6358 24.262 35.2365 23.7513C35.698 23.3567 36.0445 22.9621 36.2755 22.567C36.5059 22.1724 36.6333 21.8006 36.6565 21.4527V21.3132C36.6565 20.7096 36.4255 20.2803 35.964 20.0247C35.502 19.7696 34.9941 19.6415 34.4403 19.6415C33.4472 19.6648 32.4083 19.9495 31.3234 20.495C30.238 21.041 29.1242 21.6388 27.9811 22.2885C26.8385 22.9388 25.6953 23.5309 24.5522 24.065C23.4096 24.5996 22.2953 24.8661 21.2099 24.8661H20.898C20.8057 24.8661 20.7015 24.8547 20.5865 24.8314C19.8244 24.7152 19.2583 24.4544 18.8896 24.0479C18.5199 23.6419 18.3353 23.1482 18.3353 22.5675C18.3353 22.498 18.3405 22.4342 18.3528 22.3762C18.3642 22.3186 18.3704 22.2543 18.3704 22.1848C18.4859 21.2795 18.953 20.2865 19.7729 19.207C20.5922 18.1274 21.7297 17.1583 23.1842 16.2991C24.2923 15.6722 25.5334 15.162 26.9071 14.7669C28.2807 14.3723 29.7987 14.1748 31.4611 14.1748C31.8535 14.1748 32.2458 14.1867 32.6387 14.2095C33.0311 14.2328 33.4235 14.2676 33.8164 14.3137C35.2246 14.4999 36.5982 14.9059 37.9378 15.5328C39.2764 16.1596 40.385 16.9841 41.2626 18.0056C41.7937 18.6325 42.2149 19.3117 42.5264 20.0428C42.8383 20.7745 42.994 21.5699 42.994 22.4285C42.994 23.9608 42.5898 25.4007 41.7818 26.7473L41.7823 26.7462Z" fill="black"/>
<path d="M91.5347 36.6494C87.7108 36.6494 85.5117 33.3392 85.4777 29.9299H95.7989C95.4942 26.0903 92.2458 24.4015 89.3021 24.4015C85.8845 24.4015 82.2849 26.4169 81.9529 31.1028C81.8848 31.1536 81.8162 31.2029 81.7461 31.2511C81.2274 31.6084 80.6953 31.7862 80.1492 31.7862C79.7939 31.7862 79.4799 31.7178 79.2077 31.5804C78.9622 31.4435 78.839 31.2921 78.839 31.1277C78.839 30.9908 78.8797 30.8394 78.9617 30.675C79.3438 29.9615 79.6372 29.2688 79.8419 28.5958C80.0466 27.9232 80.1487 27.2989 80.1487 26.7224C80.1487 25.9544 80.0115 25.3841 79.7393 25.0138C79.466 24.6431 79.152 24.458 78.7978 24.458C78.3332 24.458 77.897 24.753 77.4876 25.3431C77.0781 25.9337 76.8734 26.8048 76.8734 27.9575C76.8734 28.4516 76.9276 28.939 77.0374 29.4192C77.1462 29.8998 77.3102 30.3458 77.5288 30.7575C77.6928 31.0048 77.7748 31.2101 77.7748 31.375C77.7748 31.5674 77.6928 31.8007 77.5288 32.075C76.9822 32.8984 76.3826 33.6809 75.7272 34.4218C75.0724 35.1628 74.4031 35.8218 73.7209 36.3979C73.0382 36.9745 72.3628 37.4344 71.694 37.7772C71.0247 38.1209 70.4312 38.2921 69.913 38.2921C69.6124 38.2921 69.3195 38.1894 69.0328 37.9835C68.7462 37.7777 68.6028 37.4007 68.6028 36.8511C68.6028 35.6984 68.9235 34.6069 69.565 33.5777C70.2059 32.5484 70.9092 31.5876 71.6734 30.6958C72.437 29.8039 73.1403 28.9665 73.7818 28.1841C74.4227 27.4016 74.7439 26.6679 74.7439 25.9814C74.7439 25.5427 74.614 25.1927 74.3551 24.9314C74.0953 24.6706 73.7338 24.5404 73.2703 24.5404C72.6695 24.5404 72.0281 24.8977 71.3459 25.6106C70.9907 25.9954 70.5405 26.5372 69.995 27.2367C69.4484 27.9367 68.855 28.6917 68.214 29.5011C67.5726 30.311 66.9172 31.1344 66.249 31.9713C65.5797 32.8087 64.9316 33.5704 64.3041 34.2564C63.676 34.9429 63.1026 35.4988 62.5844 35.924C62.0657 36.3497 61.6563 36.5623 61.3562 36.5623C61.1108 36.5623 60.9876 36.4119 60.9876 36.1096C60.9876 35.8073 61.1515 35.4096 61.4789 34.9155C61.8064 34.4213 62.2158 33.8862 62.7072 33.3096C63.1986 32.733 63.7374 32.1155 64.3242 31.4569C64.9109 30.7979 65.4503 30.1394 65.9412 29.4809C66.4326 28.8218 66.8481 28.1908 67.19 27.5867C67.5308 26.9832 67.702 26.4341 67.702 25.9399C67.702 25.5837 67.62 25.2746 67.4566 25.0133C67.2926 24.753 67.0198 24.6224 66.6378 24.6224C66.2284 24.6224 65.7096 24.8422 65.0821 25.2814C64.4541 25.7206 63.8127 26.2427 63.1578 26.8458C62.6685 27.2964 62.0812 27.8501 61.3361 28.6575C60.8226 29.2138 60.2136 29.9138 59.5644 30.7564C59.5634 30.7585 59.5624 30.7611 59.5613 30.7637C59.5072 29.8381 59.4494 28.8327 59.3891 27.7573C59.1246 23.0305 55.7101 21.6528 51.5624 22.5032C47.4132 23.3229 45.955 25.7149 46.8424 26.8038C47.6978 27.8641 49.0653 26.0312 51.2221 25.7247C52.9232 25.4743 53.4455 26.0607 53.5497 26.8245C53.875 28.8078 49.6979 30.7684 48.347 31.7992C46.6454 33.1271 45.0913 34.9087 45.6647 37.4935C46.1071 39.3778 47.8577 40.0177 49.75 39.9109C53.445 39.7325 55.8921 36.946 57.0239 35.8353C57.0966 37.1352 57.0384 38.6011 57.851 39.1906C57.9371 39.2534 58.2903 39.4587 58.941 39.4525C60.3399 39.4401 61.4965 38.4435 62.2044 37.6434C62.603 37.2799 63.016 36.8729 63.445 36.4186C64.2087 35.6092 64.994 34.7034 65.7994 33.7011C66.6043 32.6993 67.3818 31.7115 68.1331 30.7367C68.8833 29.7629 69.5866 28.8571 70.2415 28.0192C70.8968 27.1823 71.4424 26.5165 71.8791 26.0224C72.1519 25.7206 72.4246 25.494 72.6979 25.3431C72.9707 25.1927 73.2161 25.1165 73.4347 25.1165C73.8441 25.1165 74.0488 25.3224 74.0488 25.7341C74.0488 26.2557 73.8503 26.7773 73.4554 27.2984C73.0594 27.8201 72.568 28.3484 71.9812 28.8835C71.3939 29.4186 70.7592 29.9683 70.0775 30.5304C69.3948 31.0935 68.7601 31.6695 68.1738 32.2596C67.5865 32.8502 67.0951 33.4605 66.6996 34.0915C66.3036 34.7231 66.1062 35.3676 66.1062 36.0266C66.1062 37.0149 66.3722 37.7906 66.9044 38.3527C67.4365 38.9158 68.2759 39.1969 69.4221 39.1969C70.1043 39.1969 70.8277 39.0118 71.5919 38.641C72.3555 38.2703 73.113 37.7699 73.8643 37.1384C74.6145 36.5073 75.3446 35.7866 76.0546 34.9766C76.7641 34.1672 77.4056 33.3231 77.9789 32.4447C78.1697 32.1155 78.3332 31.9506 78.4703 31.9506C78.5245 31.9506 78.593 31.9646 78.675 31.9915C78.757 32.019 78.8658 32.0605 79.0025 32.1149C79.3567 32.3073 79.7527 32.4032 80.1899 32.4032C80.7747 32.3768 81.3527 32.1855 81.925 31.8334C81.9343 36.5555 85.5499 39.2306 89.0984 39.2306C91.7719 39.2306 94.3774 37.7082 95.3926 34.4638C94.513 35.9204 93.0574 36.6494 91.5347 36.6494ZM89.1659 24.7328C90.8917 24.7328 92.3468 25.9907 92.3468 27.6785C92.3468 28.2416 92.2453 28.9696 91.873 29.5986H85.4772C85.5787 26.1229 87.4061 24.7328 89.1659 24.7328ZM53.6703 37.7492C52.0956 38.6078 49.5448 38.4445 48.777 36.7635C48.0077 35.0518 49.0374 33.2075 51.3459 31.2293C53.6543 29.2512 54.1571 27.8372 53.939 26.6793C53.6698 25.1549 51.8161 24.8593 49.8444 25.1865C49.4494 25.2394 49.0168 25.1715 49.2117 24.822C49.7098 23.87 51.0097 23.0269 52.5952 22.9061C54.4556 22.7702 56.3572 23.9249 56.579 27.8844L56.9961 35.3432C56.2742 36.1231 54.7722 37.1938 53.6703 37.7492ZM60.5374 30.4692C60.8483 30.0663 61.1593 29.7453 61.7656 29.0899C62.3112 28.4998 62.8918 27.9238 63.5059 27.3606C64.12 26.7986 64.7135 26.3044 65.2868 25.8782C65.8602 25.453 66.3103 25.2399 66.6378 25.2399C66.8559 25.2399 66.9652 25.3364 66.9652 25.5282C66.9652 25.9954 66.7399 26.503 66.2897 27.0516C65.8396 27.6012 65.2724 28.1841 64.5907 28.8016C63.9081 29.4192 63.1784 30.0647 62.4004 30.7367C61.6223 31.4098 60.8916 32.1025 60.21 32.816C60.0378 32.9959 59.8733 33.1764 59.716 33.3573C59.6861 32.8632 59.6541 32.3291 59.6201 31.7572C59.8166 31.4948 60.1146 31.0162 60.5374 30.4692ZM78.2656 30.5516C78.129 30.5516 77.9789 30.3598 77.8155 29.975C77.6783 29.6732 77.5835 29.3512 77.5288 29.0075C77.4736 28.6647 77.4468 28.3282 77.4468 27.9989C77.4468 27.1206 77.5963 26.4211 77.897 25.8989C78.197 25.3778 78.4971 25.1165 78.7978 25.1165C78.9885 25.1165 79.1592 25.2472 79.3093 25.5075C79.4588 25.7688 79.5346 26.1732 79.5346 26.7218C79.5346 27.216 79.4593 27.7449 79.3093 28.3069C79.1592 28.8701 78.9473 29.4394 78.6745 30.0155C78.4832 30.3727 78.3471 30.5506 78.2651 30.5506L78.2656 30.5516Z" fill="black"/>
</svg>
