<svg width="120" height="120" viewBox="0 0 120 120" fill="none" xmlns="http://www.w3.org/2000/svg">
<circle cx="60" cy="60" r="60" fill="black"/>
<path d="M88.641 31.7885C86.9853 28.9986 84.9797 26.7198 82.6255 24.9528C80.2707 23.1862 77.7687 22.055 75.1196 21.5578C73.2791 21.1853 71.5322 21 69.8765 21C67.2274 21 64.7797 21.4043 62.5365 22.2086C60.2916 23.0145 58.268 24.0682 56.466 25.371C54.8103 26.6116 53.3478 27.9908 52.0782 29.5097C50.8088 31.0299 49.7234 32.6248 48.8219 34.2989C47.9198 35.9729 47.2123 37.6634 46.6971 39.3679C46.1811 41.0736 45.8689 42.6689 45.7588 44.1573C45.7218 44.4687 45.7037 44.7319 45.7037 44.9477V45.7384C45.7037 48.343 46.1811 50.5139 47.1383 52.2488C48.0948 53.985 49.4563 55.0387 51.2221 55.4112C51.4062 55.4735 51.5992 55.5039 51.8014 55.5039H52.3806C54.0363 55.5039 55.71 54.8988 57.4027 53.6902C59.0946 52.4814 60.7691 51.0552 62.4248 49.4119C64.0805 47.7697 65.7081 46.0957 67.3088 44.3899C68.9094 42.6854 70.4633 41.3369 71.9727 40.3441C72.1188 40.2208 72.2848 40.1585 72.4697 40.1585C72.5798 40.1585 72.6349 40.2208 72.6349 40.3441C72.6349 40.5297 72.5428 40.7789 72.3588 41.0875C71.2553 42.6384 70.0959 44.5602 68.8815 46.853C67.6671 49.1473 66.4714 51.5495 65.2941 54.0598C64.1158 56.5702 62.9941 59.0818 61.9276 61.5935C60.8602 64.1038 59.9039 66.3827 59.0576 68.4292C58.9475 68.6783 58.8093 68.9721 58.6434 69.3125C58.4774 69.6546 58.2474 69.8236 57.9533 69.8236C57.7684 69.8236 57.4931 69.638 57.1257 69.2655C55.8374 68.0887 54.5597 66.8481 53.2902 65.545C52.0208 64.2435 50.7324 63.0806 49.4267 62.0573C48.1203 61.0341 46.7957 60.1825 45.4532 59.5C44.1096 58.8188 42.721 58.4767 41.2864 58.4767C40.4392 58.4767 39.6767 58.5862 38.9964 58.802C38.3152 59.0196 37.644 59.3766 36.9817 59.8709C36.0244 60.5537 35.326 61.3914 34.8847 62.3826C34.4435 63.3754 34.2225 64.3682 34.2225 65.3581C34.2225 66.164 34.3605 66.8313 34.6366 67.3576C34.9127 67.885 35.2709 68.18 35.713 68.2409C36.0803 68.2409 36.4665 68.0871 36.8724 67.7758C37.2767 67.4655 37.7187 66.9394 38.1969 66.1944C40.0367 63.2814 41.9856 61.8234 44.0472 61.8234C45.1869 61.8234 46.3003 62.0726 47.3865 62.5695C48.4712 63.0667 49.5295 63.7353 50.5598 64.5744C51.5893 65.415 52.6107 66.3453 53.623 67.3715C54.6346 68.3974 55.6739 69.4068 56.7412 70.4009C56.8875 70.5254 57.0453 70.7123 57.2104 70.9603C57.3756 71.2108 57.4586 71.4891 57.4586 71.8007C57.4586 72.1123 57.3485 72.547 57.1275 73.1049C55.766 76.2756 54.3214 79.2137 52.7948 81.9179C51.2672 84.6221 49.6576 87.0312 47.9657 89.1442C47.2665 90.0164 46.4662 90.854 45.5649 91.6626C44.6626 92.4714 43.7431 93.2009 42.8056 93.8546C41.8674 94.508 40.938 95.0218 40.0185 95.3941C39.0983 95.7679 38.2527 95.9535 37.4795 95.9535C36.5963 95.8291 35.796 95.6408 35.0787 95.3914C34.3613 95.1409 33.7262 94.7519 33.1749 94.2199C32.6227 93.6883 32.1346 92.9545 31.7123 92.0159C31.2899 91.0783 30.9309 89.8919 30.6359 88.4532C30.3417 87.016 29.9835 85.9845 29.5595 85.3599C29.1372 84.7356 28.723 84.4226 28.3179 84.4226C27.6927 84.4226 27.1503 84.9198 26.6902 85.9111C26.2309 86.9039 26 88.0823 26 89.4447C26 90.2505 26.1019 91.0578 26.3032 91.8621C26.5061 92.668 26.8463 93.413 27.3245 94.0942C28.3179 95.5826 29.5044 96.6058 30.884 97.1623C32.2636 97.7204 33.7443 98 35.3268 98C37.7549 98 40.0727 97.3175 42.2806 95.9535C44.4884 94.5911 46.5114 92.8853 48.3512 90.8388C50.0799 88.9183 51.7636 86.53 53.4011 83.6776C55.0379 80.8268 56.5925 77.7878 58.065 74.5644C58.5802 73.6963 59.0214 73.2629 59.3895 73.2629C59.5736 73.2629 59.9417 73.4178 60.4931 73.7281C61.8536 74.7831 63.2982 75.6347 64.8258 76.2854C66.3524 76.9362 68.017 77.2614 69.8206 77.2614C72.6537 77.2614 75.5049 76.4406 78.3751 74.797C81.2452 73.1548 83.8014 70.9382 86.0462 68.148C86.9657 67.0321 87.8399 65.7624 88.6673 64.3348C89.4956 62.9089 90.2311 61.3748 90.8752 59.7312C91.5185 58.089 92.0346 56.3362 92.4207 54.4766C92.8069 52.6171 93 50.633 93 48.5243C93 45.1763 92.6139 42.1065 91.8407 39.3166C91.0683 36.5267 90.0001 34.015 88.6394 31.7832L88.641 31.7885ZM87.4817 56.1547C86.1933 59.7505 84.5746 62.9129 82.6247 65.6406C80.4169 68.6799 78.0168 71.0669 75.4229 72.8018C72.8287 74.538 70.3727 75.4061 68.0549 75.4061C66.6934 75.4061 65.4058 75.1127 64.1914 74.5228C62.9769 73.9343 61.7815 73.2061 60.604 72.3366C60.1258 71.9641 59.8866 71.5321 59.8866 71.0351C59.8866 70.8495 59.9227 70.6626 59.9967 70.477C60.0698 70.2914 60.1627 70.0436 60.2728 69.7336C62.1496 65.6419 63.9055 62.4643 65.543 60.2004C67.1798 57.9381 68.6892 56.141 70.0689 54.8062C71.4484 53.4742 72.7178 52.3735 73.8773 51.5054C75.0358 50.637 76.0933 49.5211 77.0505 48.1574C77.7859 47.1037 78.3381 46.05 78.7062 44.995C79.0735 43.9413 79.2764 42.9485 79.3135 42.0195V41.647C79.3135 40.0352 78.9454 38.8888 78.21 38.2063C77.4737 37.5251 76.6644 37.183 75.7819 37.183C74.1993 37.2453 72.5436 38.0055 70.8148 39.4621C69.0853 40.9201 67.3104 42.5164 65.4888 44.2513C63.6679 45.9878 61.8463 47.5689 60.0247 48.9951C58.2038 50.4226 56.4282 51.1342 54.6986 51.1342H54.2014C54.0543 51.1342 53.8885 51.1038 53.7052 51.0416C52.4908 50.7313 51.5885 50.0349 51.0011 48.9494C50.412 47.8653 50.1178 46.5469 50.1178 44.9963C50.1178 44.8107 50.1259 44.6404 50.1457 44.4855C50.1637 44.3317 50.1736 44.16 50.1736 43.9744C50.3576 41.557 51.1021 38.9054 52.4085 36.0228C53.7143 33.1399 55.5268 30.5522 57.8448 28.2579C59.6106 26.5838 61.5883 25.2215 63.7772 24.1664C65.9661 23.1127 68.3851 22.5854 71.0342 22.5854C71.6595 22.5854 72.2848 22.6171 72.9109 22.678C73.5363 22.7402 74.1616 22.8332 74.7877 22.9563C77.0317 23.4535 79.2206 24.5376 81.3553 26.2116C83.4883 27.8853 85.2549 30.087 86.6534 32.8147C87.4997 34.4887 88.1711 36.3024 88.6673 38.2546C89.1645 40.2085 89.4126 42.3324 89.4126 44.6251C89.4126 48.7168 88.7685 52.5618 87.4809 56.1576L87.4817 56.1547Z" fill="#FFFACB"/>
</svg>
